{"asset":{"version":"2.0","generator":"Blockbench 4.9.4 glTF exporter"},"scenes":[{"nodes":[12],"name":"blockbench_export"}],"scene":0,"nodes":[{"name":"Wall1","mesh":0},{"name":"Wall2_0","mesh":1},{"name":"Wall2_1","mesh":2},{"name":"Wall3","mesh":3},{"name":"Wall4","mesh":4},{"name":"WallLight","mesh":5},{"name":"DoorFrame","mesh":6},{"name":"RightDoor","mesh":7},{"translation":[-0.34375,0,0.46875],"name":"RightDoor","children":[7]},{"rotation":[0,-1,0,6.123233995736766e-17],"name":"LeftDoor","mesh":8},{"translation":[0.34375,0,0.46875],"name":"LeftDoor","children":[9]},{"name":"Door","children":[8,10]},{"children":[0,1,2,3,4,5,6,11]}],"bufferViews":[{"buffer":0,"byteOffset":0,"byteLength":384,"target":34962,"byteStride":12},{"buffer":0,"byteOffset":384,"byteLength":384,"target":34962,"byteStride":12},{"buffer":0,"byteOffset":768,"byteLength":256,"target":34962,"byteStride":8},{"buffer":0,"byteOffset":1024,"byteLength":12,"target":34963},{"buffer":0,"byteOffset":1036,"byteLength":72,"target":34963},{"buffer":0,"byteOffset":1108,"byteLength":12,"target":34963},{"buffer":0,"byteOffset":1120,"byteLength":288,"target":34962,"byteStride":12},{"buffer":0,"byteOffset":1408,"byteLength":288,"target":34962,"byteStride":12},{"buffer":0,"byteOffset":1696,"byteLength":192,"target":34962,"byteStride":8},{"buffer":0,"byteOffset":1888,"byteLength":12,"target":34963},{"buffer":0,"byteOffset":1900,"byteLength":48,"target":34963},{"buffer":0,"byteOffset":1948,"byteLength":12,"target":34963},{"buffer":0,"byteOffset":1960,"byteLength":576,"target":34962,"byteStride":12},{"buffer":0,"byteOffset":2536,"byteLength":576,"target":34962,"byteStride":12},{"buffer":0,"byteOffset":3112,"byteLength":384,"target":34962,"byteStride":8},{"buffer":0,"byteOffset":3496,"byteLength":24,"target":34963},{"buffer":0,"byteOffset":3520,"byteLength":96,"target":34963},{"buffer":0,"byteOffset":3616,"byteLength":24,"target":34963},{"buffer":0,"byteOffset":3640,"byteLength":672,"target":34962,"byteStride":12},{"buffer":0,"byteOffset":4312,"byteLength":672,"target":34962,"byteStride":12},{"buffer":0,"byteOffset":4984,"byteLength":448,"target":34962,"byteStride":8},{"buffer":0,"byteOffset":5432,"byteLength":24,"target":34963},{"buffer":0,"byteOffset":5456,"byteLength":120,"target":34963},{"buffer":0,"byteOffset":5576,"byteLength":24,"target":34963},{"buffer":0,"byteOffset":5600,"byteLength":1056,"target":34962,"byteStride":12},{"buffer":0,"byteOffset":6656,"byteLength":1056,"target":34962,"byteStride":12},{"buffer":0,"byteOffset":7712,"byteLength":704,"target":34962,"byteStride":8},{"buffer":0,"byteOffset":8416,"byteLength":36,"target":34963},{"buffer":0,"byteOffset":8452,"byteLength":192,"target":34963},{"buffer":0,"byteOffset":8644,"byteLength":36,"target":34963},{"buffer":0,"byteOffset":8680,"byteLength":240,"target":34962,"byteStride":12},{"buffer":0,"byteOffset":8920,"byteLength":240,"target":34962,"byteStride":12},{"buffer":0,"byteOffset":9160,"byteLength":160,"target":34962,"byteStride":8},{"buffer":0,"byteOffset":9320,"byteLength":60,"target":34963},{"buffer":0,"byteOffset":9380,"byteLength":720,"target":34962,"byteStride":12},{"buffer":0,"byteOffset":10100,"byteLength":720,"target":34962,"byteStride":12},{"buffer":0,"byteOffset":10820,"byteLength":480,"target":34962,"byteStride":8},{"buffer":0,"byteOffset":11300,"byteLength":180,"target":34963},{"buffer":0,"byteOffset":11480,"byteLength":456,"target":34962,"byteStride":12},{"buffer":0,"byteOffset":11936,"byteLength":456,"target":34962,"byteStride":12},{"buffer":0,"byteOffset":12392,"byteLength":304,"target":34962,"byteStride":8},{"buffer":0,"byteOffset":12696,"byteLength":108,"target":34963},{"buffer":0,"byteOffset":12804,"byteLength":456,"target":34962,"byteStride":12},{"buffer":0,"byteOffset":13260,"byteLength":456,"target":34962,"byteStride":12},{"buffer":0,"byteOffset":13716,"byteLength":304,"target":34962,"byteStride":8},{"buffer":0,"byteOffset":14020,"byteLength":108,"target":34963},{"buffer":0,"byteOffset":14128,"byteLength":8},{"buffer":0,"byteOffset":14136,"byteLength":32},{"buffer":0,"byteOffset":14168,"byteLength":8},{"buffer":0,"byteOffset":14176,"byteLength":32},{"buffer":0,"byteOffset":14208,"byteLength":8},{"buffer":0,"byteOffset":14216,"byteLength":32},{"buffer":0,"byteOffset":14248,"byteLength":8},{"buffer":0,"byteOffset":14256,"byteLength":32}],"buffers":[{"byteLength":14288,"uri":"data:application/octet-stream;base64,"}],"accessors":[{"bufferView":0,"componentType":5126,"count":32,"max":[0.4375,0.875,0.5],"min":[-0.4375,0,-0.4375],"type":"VEC3"},{"bufferView":1,"componentType":5126,"count":32,"max":[1,1,0],"min":[-1,-0.7071067690849304,-1],"type":"VEC3"},{"bufferView":2,"componentType":5126,"count":32,"max":[1,1],"min":[0,0],"type":"VEC2"},{"bufferView":3,"componentType":5123,"count":6,"max":[3],"min":[0],"type":"SCALAR"},{"bufferView":4,"componentType":5123,"count":36,"max":[27],"min":[4],"type":"SCALAR"},{"bufferView":5,"componentType":5123,"count":6,"max":[31],"min":[28],"type":"SCALAR"},{"bufferView":6,"componentType":5126,"count":24,"max":[0.4375,0.875,0.5],"min":[-0.4375,0,-0.5],"type":"VEC3"},{"bufferView":7,"componentType":5126,"count":24,"max":[1,1,0],"min":[-1,-0.7071067690849304,0],"type":"VEC3"},{"bufferView":8,"componentType":5126,"count":24,"max":[1,1],"min":[0,0],"type":"VEC2"},{"bufferView":9,"componentType":5123,"count":6,"max":[3],"min":[0],"type":"SCALAR"},{"bufferView":10,"componentType":5123,"count":24,"max":[19],"min":[4],"type":"SCALAR"},{"bufferView":11,"componentType":5123,"count":6,"max":[23],"min":[20],"type":"SCALAR"},{"bufferView":12,"componentType":5126,"count":48,"max":[0.5,0.875,0.5],"min":[-0.4375,0,-0.4375],"type":"VEC3"},{"bufferView":13,"componentType":5126,"count":48,"max":[1,1,0],"min":[0,-0.7071067690849304,-1],"type":"VEC3"},{"bufferView":14,"componentType":5126,"count":48,"max":[1,1],"min":[0,0],"type":"VEC2"},{"bufferView":15,"componentType":5123,"count":12,"max":[7],"min":[0],"type":"SCALAR"},{"bufferView":16,"componentType":5123,"count":48,"max":[39],"min":[8],"type":"SCALAR"},{"bufferView":17,"componentType":5123,"count":12,"max":[47],"min":[40],"type":"SCALAR"},{"bufferView":18,"componentType":5126,"count":56,"max":[0.5,0.875,0.5],"min":[-0.4375,0,-0.5],"type":"VEC3"},{"bufferView":19,"componentType":5126,"count":56,"max":[1,1,0],"min":[-1,-0.7071067690849304,-1],"type":"VEC3"},{"bufferView":20,"componentType":5126,"count":56,"max":[1,1],"min":[0,0],"type":"VEC2"},{"bufferView":21,"componentType":5123,"count":12,"max":[7],"min":[0],"type":"SCALAR"},{"bufferView":22,"componentType":5123,"count":60,"max":[47],"min":[8],"type":"SCALAR"},{"bufferView":23,"componentType":5123,"count":12,"max":[55],"min":[48],"type":"SCALAR"},{"bufferView":24,"componentType":5126,"count":88,"max":[0.5,0.875,0.5],"min":[-0.5,0,-0.5],"type":"VEC3"},{"bufferView":25,"componentType":5126,"count":88,"max":[1,1,1],"min":[-1,-1,-1],"type":"VEC3"},{"bufferView":26,"componentType":5126,"count":88,"max":[1,1],"min":[0,0],"type":"VEC2"},{"bufferView":27,"componentType":5123,"count":18,"max":[11],"min":[0],"type":"SCALAR"},{"bufferView":28,"componentType":5123,"count":96,"max":[75],"min":[12],"type":"SCALAR"},{"bufferView":29,"componentType":5123,"count":18,"max":[87],"min":[76],"type":"SCALAR"},{"bufferView":30,"componentType":5126,"count":20,"max":[0.125,0.4375,-0.3125],"min":[-0.125,0.3125,-0.4375],"type":"VEC3"},{"bufferView":31,"componentType":5126,"count":20,"max":[0.8944271802902222,1,0.8944271802902222],"min":[-0.8944271802902222,-1,0],"type":"VEC3"},{"bufferView":32,"componentType":5126,"count":20,"max":[0.1875,0.0625],"min":[0.125,0],"type":"VEC2"},{"bufferView":33,"componentType":5123,"count":30,"max":[19],"min":[0],"type":"SCALAR"},{"bufferView":34,"componentType":5126,"count":60,"max":[0.4375,0.875,0.5],"min":[-0.4375,0,0.4375],"type":"VEC3"},{"bufferView":35,"componentType":5126,"count":60,"max":[0,1,1],"min":[-1,-0.7071067690849304,-1],"type":"VEC3"},{"bufferView":36,"componentType":5126,"count":60,"max":[0.125,0.0625],"min":[0.0625,0],"type":"VEC2"},{"bufferView":37,"componentType":5123,"count":90,"max":[59],"min":[0],"type":"SCALAR"},{"bufferView":38,"componentType":5126,"count":38,"max":[0.34375,0.8125,0.015625],"min":[-0.03125,0,-0.015625],"type":"VEC3"},{"bufferView":39,"componentType":5126,"count":38,"max":[1,0.7071067690849304,1],"min":[-0.7071067690849304,-1,0],"type":"VEC3"},{"bufferView":40,"componentType":5126,"count":38,"max":[0.46875,0.84375],"min":[0,0],"type":"VEC2"},{"bufferView":41,"componentType":5123,"count":54,"max":[37],"min":[0],"type":"SCALAR"},{"bufferView":42,"componentType":5126,"count":38,"max":[0.34375,0.8125,0.015625],"min":[-0.03125,0,-0.015625],"type":"VEC3"},{"bufferView":43,"componentType":5126,"count":38,"max":[1,0.7071067690849304,1],"min":[-0.7071067690849304,-1,0],"type":"VEC3"},{"bufferView":44,"componentType":5126,"count":38,"max":[0.46875,0.84375],"min":[0,0],"type":"VEC2"},{"bufferView":45,"componentType":5123,"count":54,"max":[37],"min":[0],"type":"SCALAR"},{"bufferView":46,"componentType":5126,"count":2,"max":[1],"min":[0],"type":"SCALAR"},{"bufferView":47,"componentType":5126,"count":2,"max":[0,0.6087614297866821,0,1],"min":[0,0,0,0.7933533191680908],"type":"VEC4"},{"bufferView":48,"componentType":5126,"count":2,"max":[1],"min":[0],"type":"SCALAR"},{"bufferView":49,"componentType":5126,"count":2,"max":[0,0,0,1],"min":[0,-0.6087614297866821,0,0.7933533191680908],"type":"VEC4"},{"bufferView":50,"componentType":5126,"count":2,"max":[1],"min":[0],"type":"SCALAR"},{"bufferView":51,"componentType":5126,"count":2,"max":[0,0.6087614297866821,0,1],"min":[0,0,0,0.7933533191680908],"type":"VEC4"},{"bufferView":52,"componentType":5126,"count":2,"max":[1],"min":[0],"type":"SCALAR"},{"bufferView":53,"componentType":5126,"count":2,"max":[0,0,0,1],"min":[0,-0.6087614297866821,0,0.7933533191680908],"type":"VEC4"}],"materials":[{"pbrMetallicRoughness":{"metallicFactor":0,"roughnessFactor":1,"baseColorTexture":{"index":0}},"alphaMode":"MASK","alphaCutoff":0.05,"doubleSided":true},{"pbrMetallicRoughness":{"metallicFactor":0,"roughnessFactor":1,"baseColorTexture":{"index":1}},"alphaMode":"MASK","alphaCutoff":0.05,"doubleSided":true},{"pbrMetallicRoughness":{"metallicFactor":0,"roughnessFactor":1,"baseColorTexture":{"index":2}},"alphaMode":"MASK","alphaCutoff":0.05,"doubleSided":true},{"pbrMetallicRoughness":{"metallicFactor":0,"roughnessFactor":1,"baseColorTexture":{"index":3}},"alphaMode":"MASK","alphaCutoff":0.05,"doubleSided":true}],"textures":[{"sampler":0,"source":0},{"sampler":1,"source":1},{"sampler":2,"source":2},{"sampler":3,"source":3}],"samplers":[{"magFilter":9728,"minFilter":9728,"wrapS":33071,"wrapT":33071},{"magFilter":9728,"minFilter":9728,"wrapS":33071,"wrapT":33071},{"magFilter":9728,"minFilter":9728,"wrapS":33071,"wrapT":33071},{"magFilter":9728,"minFilter":9728,"wrapS":33071,"wrapT":33071}],"images":[{"mimeType":"image/png","uri":"data:image/png;base64,"},{"mimeType":"image/png","uri":"data:image/png;base64,"},{"mimeType":"image/png","uri":"data:image/png;base64,"},{"mimeType":"image/png","uri":"data:image/png;base64,"}],"meshes":[{"primitives":[{"mode":4,"attributes":{"POSITION":0,"NORMAL":1,"TEXCOORD_0":2},"indices":3,"material":0},{"mode":4,"attributes":{"POSITION":0,"NORMAL":1,"TEXCOORD_0":2},"indices":4,"material":1},{"mode":4,"attributes":{"POSITION":0,"NORMAL":1,"TEXCOORD_0":2},"indices":5,"material":2}]},{"primitives":[{"mode":4,"attributes":{"POSITION":6,"NORMAL":7,"TEXCOORD_0":8},"indices":9,"material":0},{"mode":4,"attributes":{"POSITION":6,"NORMAL":7,"TEXCOORD_0":8},"indices":10,"material":1},{"mode":4,"attributes":{"POSITION":6,"NORMAL":7,"TEXCOORD_0":8},"indices":11,"material":2}]},{"primitives":[{"mode":4,"attributes":{"POSITION":12,"NORMAL":13,"TEXCOORD_0":14},"indices":15,"material":0},{"mode":4,"attributes":{"POSITION":12,"NORMAL":13,"TEXCOORD_0":14},"indices":16,"material":1},{"mode":4,"attributes":{"POSITION":12,"NORMAL":13,"TEXCOORD_0":14},"indices":17,"material":2}]},{"primitives":[{"mode":4,"attributes":{"POSITION":18,"NORMAL":19,"TEXCOORD_0":20},"indices":21,"material":0},{"mode":4,"attributes":{"POSITION":18,"NORMAL":19,"TEXCOORD_0":20},"indices":22,"material":1},{"mode":4,"attributes":{"POSITION":18,"NORMAL":19,"TEXCOORD_0":20},"indices":23,"material":2}]},{"primitives":[{"mode":4,"attributes":{"POSITION":24,"NORMAL":25,"TEXCOORD_0":26},"indices":27,"material":0},{"mode":4,"attributes":{"POSITION":24,"NORMAL":25,"TEXCOORD_0":26},"indices":28,"material":1},{"mode":4,"attributes":{"POSITION":24,"NORMAL":25,"TEXCOORD_0":26},"indices":29,"material":2}]},{"primitives":[{"mode":4,"attributes":{"POSITION":30,"NORMAL":31,"TEXCOORD_0":32},"indices":33,"material":0}]},{"primitives":[{"mode":4,"attributes":{"POSITION":34,"NORMAL":35,"TEXCOORD_0":36},"indices":37,"material":0}]},{"primitives":[{"mode":4,"attributes":{"POSITION":38,"NORMAL":39,"TEXCOORD_0":40},"indices":41,"material":3}]},{"primitives":[{"mode":4,"attributes":{"POSITION":42,"NORMAL":43,"TEXCOORD_0":44},"indices":45,"material":3}]}],"animations":[{"name":"DoorOpen","samplers":[{"input":46,"output":47,"interpolation":"LINEAR"},{"input":48,"output":49,"interpolation":"LINEAR"}],"channels":[{"sampler":0,"target":{"node":8,"path":"rotation"}},{"sampler":1,"target":{"node":10,"path":"rotation"}}]},{"name":"DoorClose","samplers":[{"input":50,"output":51,"interpolation":"LINEAR"},{"input":52,"output":53,"interpolation":"LINEAR"}],"channels":[{"sampler":0,"target":{"node":8,"path":"rotation"}},{"sampler":1,"target":{"node":10,"path":"rotation"}}]}]}